<svg width="20" height="19" viewBox="0 0 20 19" fill="none" xmlns="http://www.w3.org/2000/svg">
    <path d="M10.747 1.29749C10.6066 1.01307 10.3169 0.833008 9.9997 0.833008C9.68252 0.833008 9.39283 1.01307 9.25244 1.29749L6.87115 6.12173L1.54584 6.9001C1.23204 6.94597 0.971475 7.16597 0.87366 7.46765C0.775846 7.76932 0.85774 8.10037 1.08492 8.32164L4.9376 12.0741L4.02836 17.3755C3.97473 17.6881 4.10327 18.0041 4.35992 18.1906C4.61657 18.377 4.95681 18.4016 5.23757 18.2539L9.9997 15.7495L14.7618 18.2539C15.0426 18.4016 15.3828 18.377 15.6395 18.1906C15.8961 18.0041 16.0247 17.6881 15.971 17.3755L15.0618 12.0741L18.9145 8.32164C19.1417 8.10037 19.2236 7.76932 19.1257 7.46765C19.0279 7.16597 18.7674 6.94597 18.4536 6.9001L13.1282 6.12173L10.747 1.29749Z" fill="#FFD312"/>
</svg>
